<svg xmlns="http://www.w3.org/2000/svg" width="231" height="50" fill="none"><path fill="#6E6E6E" d="m38.884 0 10.604 6.123v4.08L38.884 4.082z"/><path fill="#5A5A5A" d="M28.28 6.123 38.884 0v4.08L28.28 10.205z"/><path fill="#000" d="m38.884 4.08 10.605 6.123-10.605 6.122-10.605-6.122z"/><path transform="matrix(.86601 .50003 .00003 1 28.28 6.12)" fill="url(#a)" d="M0 0h12.245v4.081H0z"/><path fill="#CAE6FC" fill-opacity=".65" d="m28.28 6.12 10.604 6.124v4.08L28.28 10.203z"/><path transform="matrix(.86601 -.50003 -.00003 1 38.884 12.243)" fill="url(#b)" d="M0 0h12.245v4.081H0z"/><path fill="#75BEF8" fill-opacity=".6" d="m38.884 12.243 10.604-6.122v4.08l-10.604 6.123z"/><path fill="#0078E3" d="M28.28 6.122 38.884 0 49.49 6.122l-10.605 6.122z"/><path fill="#6E6E6E" d="m24.744 8.164 10.605 6.123v4.08l-10.604-6.122z"/><path fill="#5A5A5A" d="m14.14 14.286 10.605-6.123v4.081L14.14 18.367z"/><path fill="#000" d="m24.744 12.244 10.605 6.122-10.605 6.122-10.604-6.122z"/><path transform="matrix(.86601 .50003 .00003 1 14.14 14.285)" fill="url(#c)" d="M0 0h12.245v4.081H0z"/><path fill="#CAE6FC" fill-opacity=".7" d="m14.14 14.285 10.604 6.123v4.08L14.14 18.367z"/><path transform="matrix(.86601 -.50003 -.00003 1 24.744 20.407)" fill="url(#d)" d="M0 0h12.245v4.081H0z"/><path fill="#75BEF8" fill-opacity=".6" d="m24.744 20.407 10.605-6.123v4.081l-10.605 6.123z"/><path fill="#0078E3" d="m14.14 14.286 10.605-6.122 10.604 6.122-10.604 6.122z"/><path fill="#6E6E6E" d="M10.604 16.328 21.21 22.45v4.081L10.605 20.41z"/><path fill="#5A5A5A" d="m0 22.45 10.605-6.123v4.081L0 26.531z"/><path fill="#000" d="M10.604 20.408 21.21 26.53l-10.605 6.122L0 26.53z"/><path transform="matrix(.86601 .50003 .00003 1 0 22.448)" fill="url(#e)" d="M0 0h12.245v4.081H0z"/><path fill="#CAE6FC" fill-opacity=".85" d="m0 22.448 10.604 6.123v4.081L0 26.53z"/><path transform="matrix(.86601 -.50003 -.00003 1 10.604 28.571)" fill="url(#f)" d="M0 0h12.245v4.081H0z"/><path fill="#75BEF8" fill-opacity=".6" d="m10.604 28.571 10.605-6.123v4.081l-10.605 6.123z"/><path fill="#0078E3" d="m0 22.45 10.605-6.123 10.604 6.122-10.604 6.123z"/><path fill="#6E6E6E" d="m53.024 8.164 19.441 11.225v4.08L53.024 12.246z"/><path fill="#000" d="M30.047 21.43 53.025 8.163v4.081L30.046 25.511z"/><path fill="#000" d="m53.024 12.244 19.442 11.224-22.977 13.265-19.442-11.224z"/><path transform="matrix(.86601 .50003 .00003 1 30.047 21.428)" fill="url(#g)" d="M0 0h22.449v4.081H0z"/><path fill="#CAE6FC" fill-opacity=".7" d="m30.047 21.428 19.441 11.225v4.081l-19.44-11.225z"/><path transform="matrix(.86601 -.50003 -.00003 1 49.489 32.653)" fill="url(#h)" d="M0 0h26.531v4.081H0z"/><path fill="#75BEF8" fill-opacity=".6" d="m49.489 32.653 22.976-13.266v4.08L49.489 36.735z"/><path fill="#0078E3" d="M30.047 21.429 53.024 8.164l19.442 11.224-22.977 13.265z"/><path fill="#6E6E6E" d="m24.744 24.491 19.441 11.225v4.081l-19.44-11.225z"/><path fill="#000" d="m14.14 30.614 10.605-6.123v4.081L14.14 34.695z"/><path fill="#000" d="m24.744 28.572 19.442 11.223-10.605 6.123L14.14 34.694z"/><path transform="matrix(.86601 .50003 .00003 1 14.14 30.612)" fill="url(#i)" d="M0 0h22.449v4.081H0z"/><path fill="#CAE6FC" fill-opacity=".85" d="m14.14 30.612 19.441 11.225v4.081l-19.44-11.225z"/><path transform="matrix(.86601 -.50003 -.00003 1 33.582 41.837)" fill="url(#j)" d="M0 0h12.245v4.081H0z"/><path fill="#75BEF8" fill-opacity=".6" d="m33.582 41.837 10.604-6.123v4.081l-10.604 6.123z"/><path fill="#0078E3" d="m14.14 30.613 10.605-6.122 19.441 11.224-10.604 6.122z"/><mask id="k" mask-type="alpha" maskUnits="userSpaceOnUse" x="1" y="21" width="33" height="29"><path fill-rule="evenodd" clip-rule="evenodd" d="m10.604 26.53-8.836-5.102v10.204l8.836 5.102V26.53zm22.977 13.266L15.908 29.592v10.203L33.582 50V39.796z" fill="red"/></mask><g opacity=".5" fill-opacity=".7" mask="url(#k)"><path d="m29.466 27.158 2.05-1.935.879 2.99 9.077 5.454-12.887.706-9.956-5.982 4.393-1.232h6.444z" fill="url(#l)"/><path fill-rule="evenodd" clip-rule="evenodd" d="m33.859 28.038-1.17-3.52 2.343-.352 5.859-3.52.586-1.407 5.857.703 13.178 7.917.878 2.64v2.463l-5.86 3.52h-4.1l-4.393-.528-13.178-7.916z" fill="url(#m)"/><path fill-rule="evenodd" clip-rule="evenodd" d="m16.29 13.963 3.22 4.75 14.936 4.398 1.758-1.056-16.692-10.028 1.172-.704 16.692 10.028 2.05-1.232-7.612-8.797-7.908-1.935-7.616 4.576z" fill="url(#n)"/><path d="m34.446 23.11-17.282 4.753-9.078-3.342 11.717-5.984 14.936 4.398-.293.176z" fill="url(#o)"/><path d="m18.046 18.538-6.738 3.343.002-4.926 4.101-2.464 2.635 4.047z" fill="url(#p)"/></g><g opacity=".5"><mask id="q" mask-type="alpha" maskUnits="userSpaceOnUse" x="1" y="0" width="70" height="40"><path fill-rule="evenodd" clip-rule="evenodd" d="M30.047 5.102 38.884 0l8.837 5.102-8.837 5.101-8.837-5.101zm-14.14 8.163 8.837-5.101 8.837 5.101-8.837 5.102-8.836-5.102zm37.117-5.1-21.21 12.244L49.49 30.612 70.7 18.368 53.024 8.164zM1.768 21.428l8.836-5.101 8.837 5.101-8.837 5.102-8.836-5.102zm22.976 3.062-8.836 5.102 17.674 10.203 8.837-5.101L24.744 24.49z" fill="#35454C"/></mask><g mask="url(#q)" fill="#0D3C61"><path d="m50.413 21.454-4.196 1.605 6.484.687 11.823 7.102 1.529-10.083-12.967-7.79-2.671 3.438-.002 5.041zM29.049 34.29l2.67-2.522 1.144 3.896 11.822 7.103-16.784.918-12.966-7.79 5.722-1.605h8.392z"/><path fill-rule="evenodd" clip-rule="evenodd" d="m34.77 35.434-1.525-4.582 3.052-.46 7.63-4.583.764-1.834 7.629.916 17.162 10.31 1.143 3.438-.001 3.208-7.63 4.584h-5.34l-5.722-.686-17.162-10.31z"/><path d="m71.77 35.202.002-5.959-4.958-2.978-.764 5.5 5.72 3.437z"/><path fill-rule="evenodd" clip-rule="evenodd" d="m11.888 17.104 4.194 6.187 19.453 5.727 2.289-1.375-21.739-13.06 1.526-.917 21.739 13.06 2.67-1.604-9.914-11.457-10.298-2.52-9.92 5.96z"/><path d="m35.535 29.018-22.507 6.19-11.824-4.353 15.26-7.793 19.452 5.727-.381.229zM42.02 25.122 52.323 11.6l-7.245-7.103-13.353 9.397 9.914 11.457.381-.23zM31.725 12.519l7.25-5.271H28.293l-5.342 3.21 8.773 2.06zM14.175 23.062l-8.774 4.355.002-6.416 5.341-3.21 3.431 5.271z"/></g></g><path d="M90.442 38.528c.364 0 .53-.203.53-.54v-8.524h3.975c3.114 0 4.77-1.724 4.77-4.87v-8.252c0-3.18-1.656-4.87-4.77-4.87h-7.95c-.332 0-.53.203-.53.54v25.975c0 .338.198.541.53.541h3.445zM93.887 25h-2.915v-9.064h2.915c.894 0 1.325.474 1.325 1.353v6.358c0 .846-.43 1.353-1.325 1.353zm13.119 13.528c.331 0 .53-.203.53-.54v-8.524h2.286l2.22 8.59c.066.305.232.474.563.474h3.445c.365 0 .563-.203.464-.609l-2.286-8.86c1.59-.71 2.419-2.199 2.419-4.465v-8.252c0-3.18-1.657-4.87-4.771-4.87h-8.315c-.332 0-.53.203-.53.54v25.975c0 .338.198.541.53.541h3.445zM110.816 25h-3.28v-9.064h3.28c.861 0 1.325.474 1.325 1.353v6.358c0 .88-.464 1.353-1.325 1.353zm13.119 13.528c.331 0 .53-.203.53-.54V12.012c0-.338-.199-.541-.53-.541h-3.445c-.365 0-.531.203-.531.54v25.975c0 .338.166.541.531.541h3.445zm7.553 0c.431 0 .663-.237.663-.676v-15.22h.232l3.28 15.287c.099.406.331.61.728.61h1.624c.397 0 .629-.204.729-.61l3.279-15.286h.232v15.219c0 .44.232.676.663.676h3.081c.43 0 .662-.237.662-.676V12.148c0-.44-.232-.676-.662-.676h-4.373c-.398 0-.63.203-.729.609l-3.677 16.842-3.678-16.842c-.099-.406-.331-.61-.728-.61h-4.374c-.43 0-.662.238-.662.677v25.704c0 .44.232.676.662.676h3.048zm31.175 0c.397 0 .53-.203.53-.54v-3.383c0-.372-.133-.541-.53-.541h-8.283v-6.832h6.328c.331 0 .53-.203.53-.575V23.31c0-.372-.199-.575-.53-.575h-6.328V15.97h8.283c.397 0 .53-.237.53-.575v-3.382c0-.338-.133-.541-.53-.541h-12.192c-.298 0-.497.203-.497.54v25.975c0 .338.199.541.497.541h12.192z" fill="red" fill-opacity=".87"/><path d="M170.546 38.528c.329 0 .527-.203.527-.54v-10.79h6.199c.33 0 .528-.169.528-.54v-3.383c0-.338-.198-.541-.528-.541h-6.199v-6.798h8.178c.329 0 .527-.203.527-.541v-3.382c0-.338-.198-.541-.527-.541h-12.135c-.363 0-.527.203-.527.54v25.975c0 .338.164.541.527.541h3.43zm24.862 0c.363 0 .528-.169.528-.54v-3.383c0-.338-.165-.541-.528-.541h-7.848V12.013c0-.338-.165-.541-.527-.541h-3.43c-.33 0-.527.203-.527.54v25.975c0 .372.197.541.527.541h11.805zm16.454 0c.396 0 .528-.203.528-.54v-3.383c0-.372-.132-.541-.528-.541h-8.244v-6.832h6.299c.329 0 .527-.203.527-.575V23.31c0-.372-.198-.575-.527-.575h-6.299V15.97h8.244c.396 0 .528-.237.528-.575v-3.382c0-.338-.132-.541-.528-.541h-12.134c-.297 0-.495.203-.495.54v25.975c0 .338.198.541.495.541h12.134zm6.793 0c.362 0 .626-.135.758-.473l3.166-8.185 3.165 8.185c.132.338.396.473.758.473h3.397c.527 0 .692-.338.494-.811l-5.242-12.988 5.045-12.445c.197-.474.033-.812-.495-.812h-3.297c-.363 0-.627.135-.759.473l-3.066 8.016-3.067-8.016c-.132-.338-.396-.473-.758-.473h-3.298c-.527 0-.692.338-.494.812l5.012 12.445-5.21 12.988c-.198.473-.033.811.494.811h3.397z" fill="#0078E3"/><defs><linearGradient id="h" x1="13.265" y1="0" x2="13.265" y2="4.081" gradientUnits="userSpaceOnUse"><stop stop-color="#0078E3"/><stop offset="1" stop-color="#9CAEB7" stop-opacity=".5"/></linearGradient><linearGradient id="a" x1="6.122" y1="0" x2="6.122" y2="4.081" gradientUnits="userSpaceOnUse"><stop stop-color="#0078E3"/><stop offset="1" stop-color="#D9E0E3" stop-opacity=".5"/></linearGradient><linearGradient id="c" x1="6.122" y1="0" x2="6.122" y2="4.081" gradientUnits="userSpaceOnUse"><stop stop-color="#0078E3"/><stop offset="1" stop-color="#D9E0E3" stop-opacity=".5"/></linearGradient><linearGradient id="d" x1="6.122" y1="0" x2="6.122" y2="4.081" gradientUnits="userSpaceOnUse"><stop stop-color="#0078E3"/><stop offset="1" stop-color="#9CAEB7" stop-opacity=".5"/></linearGradient><linearGradient id="e" x1="6.122" y1="0" x2="6.122" y2="4.081" gradientUnits="userSpaceOnUse"><stop stop-color="#0078E3"/><stop offset="1" stop-color="#D9E0E3" stop-opacity=".5"/></linearGradient><linearGradient id="f" x1="6.122" y1="0" x2="6.122" y2="4.081" gradientUnits="userSpaceOnUse"><stop stop-color="#0078E3"/><stop offset="1" stop-color="#9CAEB7" stop-opacity=".5"/></linearGradient><linearGradient id="g" x1="11.225" y1="0" x2="11.225" y2="4.081" gradientUnits="userSpaceOnUse"><stop stop-color="#0078E3"/><stop offset="1" stop-color="#D9E0E3" stop-opacity=".5"/></linearGradient><linearGradient id="b" x1="6.122" y1="0" x2="6.122" y2="4.081" gradientUnits="userSpaceOnUse"><stop stop-color="#0078E3"/><stop offset="1" stop-color="#9CAEB7" stop-opacity=".5"/></linearGradient><linearGradient id="i" x1="11.225" y1="0" x2="11.225" y2="4.081" gradientUnits="userSpaceOnUse"><stop stop-color="#0078E3"/><stop offset="1" stop-color="#D9E0E3" stop-opacity=".5"/></linearGradient><linearGradient id="j" x1="6.122" y1="0" x2="6.122" y2="4.081" gradientUnits="userSpaceOnUse"><stop stop-color="#0078E3"/><stop offset="1" stop-color="#9CAEB7" stop-opacity=".5"/></linearGradient><linearGradient id="l" x1="23.169" y1="25.663" x2="31.557" y2="39.625" gradientUnits="userSpaceOnUse"><stop offset=".464" stop-color="#526A76"/><stop offset="1" stop-color="#607D8B"/></linearGradient><linearGradient id="m" x1="37.083" y1="21.879" x2="48.421" y2="40.752" gradientUnits="userSpaceOnUse"><stop offset=".464" stop-color="#526A76"/><stop offset="1" stop-color="#607D8B"/></linearGradient><linearGradient id="n" x1="20.098" y1="11.675" x2="28.951" y2="26.412" gradientUnits="userSpaceOnUse"><stop offset=".464" stop-color="#526A76"/><stop offset="1" stop-color="#607D8B"/></linearGradient><linearGradient id="o" x1="15.409" y1="20.122" x2="21.777" y2="30.722" gradientUnits="userSpaceOnUse"><stop offset=".464" stop-color="#526A76"/><stop offset="1" stop-color="#607D8B"/></linearGradient><linearGradient id="p" x1="11.31" y1="16.955" x2="13.795" y2="21.091" gradientUnits="userSpaceOnUse"><stop offset=".464" stop-color="#526A76"/><stop offset="1" stop-color="#607D8B"/></linearGradient></defs></svg>