<svg xmlns="http://www.w3.org/2000/svg" width="57" height="61" fill="none"><path d="M28.3 0 .073 10.026l4.305 37.177L28.3 60.4l23.922-13.197 4.305-37.177L28.3 0z" fill="#DD0031"/><mask id="a" mask-type="alpha" maskUnits="userSpaceOnUse" x="0" y="0" width="57" height="61"><path d="M28.3 0 .073 10.026l4.305 37.177L28.3 60.4l23.922-13.197 4.305-37.177L28.3 0z" fill="#fff"/></mask><g mask="url(#a)"><path fill-rule="evenodd" clip-rule="evenodd" d="M28.3 0v6.704-.03V60.4l23.922-13.197 4.305-37.177L28.3 0z" fill="#C3002F"/></g><path d="m36.574 28.646-2.708-.602 2.106 3.008v9.324l7.221-6.016V24.134l-3.31 1.203-3.31 3.309zM19.725 28.646l2.708-.602-2.106 3.008v9.324l-7.22-6.016V24.134l3.309 1.203 3.31 3.309z" fill="#fff"/><path fill-rule="evenodd" clip-rule="evenodd" d="M21.2 31.616 23.6 28l1.5.904h6L32.6 28l2.4 3.616v13.562l-1.8 2.712L31.1 50h-6L23 47.89l-1.8-2.712V31.616z" fill="#fff"/><path d="m35.972 46.09 3.911-3.91v-3.91l-3.91 3.309v4.511zM20.327 46.09l-3.911-3.91v-3.91l3.911 3.309v4.511z" fill="#fff"/><path fill-rule="evenodd" clip-rule="evenodd" d="m24.238 10.6-2.407 5.714 3.912 11.43h1.805V10.6h-3.31zm4.513 0v17.144h2.106l3.61-11.43-2.406-5.714h-3.31z" fill="#fff"/><path d="M25.743 27.744 12.805 22.93 11 15.412l11.132.902 3.912 11.43h-.301zM30.857 27.744l12.938-4.813 1.805-7.519-11.433.902-3.61 11.43h.3zM35.07 15.412l6.318-.601-4.212-4.211h-4.212l2.106 4.812zM21.23 15.412l-6.319-.601 4.213-4.211h4.212l-2.106 4.812z" fill="#fff"/></svg>