<?xml version="1.0" encoding="UTF-8"?>
<!DOCTYPE svg PUBLIC "-//W3C//DTD SVG 1.1//EN" "http://www.w3.org/Graphics/SVG/1.1/DTD/svg11.dtd">
<svg xmlns="http://www.w3.org/2000/svg" version="1.1" width="64px" height="64px" style="shape-rendering:geometricPrecision; text-rendering:geometricPrecision; image-rendering:optimizeQuality; fill-rule:evenodd; clip-rule:evenodd" xmlns:xlink="http://www.w3.org/1999/xlink">
<g><path style="opacity:0.704" fill="#030505" d="M 7.5,-0.5 C 18.8333,-0.5 30.1667,-0.5 41.5,-0.5C 46.7971,5.29805 52.2971,10.9647 58,16.5C 58.6667,30.8333 58.6667,45.1667 58,59.5C 57.3378,60.9839 56.5045,62.3172 55.5,63.5C 39.5,63.5 23.5,63.5 7.5,63.5C 6.49551,62.3172 5.66218,60.9839 5,59.5C 4.33333,40.8333 4.33333,22.1667 5,3.5C 5.66218,2.01608 6.49551,0.682751 7.5,-0.5 Z"/></g>
<g><path style="opacity:1" fill="#f0eef4" d="M 39.5,16.5 C 34.7146,16.5433 29.7146,16.71 24.5,17C 23.0692,17.4652 21.9025,18.2986 21,19.5C 20.3333,26.1667 20.3333,32.8333 21,39.5C 24.0976,41.0473 27.4309,41.7139 31,41.5C 34.8643,41.6696 38.5309,41.0029 42,39.5C 42.7945,32.4197 42.6278,25.4197 41.5,18.5C 46.5,18.5 51.5,18.5 56.5,18.5C 56.5,26.8333 56.5,35.1667 56.5,43.5C 39.8333,43.5 23.1667,43.5 6.5,43.5C 6.71743,34.3678 6.3841,25.5344 5.5,17C 6.30287,12.5855 6.80287,8.08554 7,3.5C 7.5,3 8,2.5 8.5,2C 18.828,1.50017 29.1613,1.33351 39.5,1.5C 39.5,6.5 39.5,11.5 39.5,16.5 Z"/></g>
<g><path style="opacity:1" fill="#3e7171" d="M 42.5,4.5 C 41.5184,7.96192 41.185,11.6286 41.5,15.5C 40.1905,11.6493 40.1905,7.64931 41.5,3.5C 42.1067,3.62358 42.44,3.95691 42.5,4.5 Z"/></g>
<g><path style="opacity:1" fill="#6ec7c7" d="M 42.5,4.5 C 46.631,8.12965 50.631,11.963 54.5,16C 49.9796,16.8136 45.6463,16.647 41.5,15.5C 41.185,11.6286 41.5184,7.96192 42.5,4.5 Z"/></g>
<g><path style="opacity:1" fill="#161a1a" d="M 39.5,16.5 C 40.5,16.8333 41.1667,17.5 41.5,18.5C 42.6278,25.4197 42.7945,32.4197 42,39.5C 38.5309,41.0029 34.8643,41.6696 31,41.5C 27.4309,41.7139 24.0976,41.0473 21,39.5C 20.3333,32.8333 20.3333,26.1667 21,19.5C 21.9025,18.2986 23.0692,17.4652 24.5,17C 29.7146,16.71 34.7146,16.5433 39.5,16.5 Z"/></g>
<g><path style="opacity:1" fill="#d2ece9" d="M 24.5,18.5 C 29.1785,18.3342 33.8452,18.5008 38.5,19C 41.001,20.4177 40.6677,21.4177 37.5,22C 33.1667,22.6667 28.8333,22.6667 24.5,22C 22.0688,20.9076 22.0688,19.7409 24.5,18.5 Z"/></g>
<g><path style="opacity:1" fill="#a4d8d5" d="M 40.5,22.5 C 42.3208,26.2161 40.9875,28.0494 36.5,28C 32.5,28.6667 28.5,28.6667 24.5,28C 22.503,26.8469 22.1696,25.3469 23.5,23.5C 25.9429,24.1121 28.4429,24.4454 31,24.5C 34.4774,24.6725 37.644,24.0058 40.5,22.5 Z"/></g>
<g><path style="opacity:1" fill="#83cbc9" d="M 21.5,28.5 C 27.6869,30.7643 34.0202,31.0976 40.5,29.5C 40.5,30.8333 40.5,32.1667 40.5,33.5C 34.1753,35.1577 28.0087,34.8243 22,32.5C 21.51,31.2068 21.3433,29.8734 21.5,28.5 Z"/></g>
<g><path style="opacity:1" fill="#6bc1c1" d="M 21.5,34.5 C 27.8345,37.1113 34.1679,37.1113 40.5,34.5C 41.7472,36.0064 41.7472,37.5064 40.5,39C 34.5,41 28.5,41 22.5,39C 21.6198,37.6439 21.2865,36.1439 21.5,34.5 Z"/></g>
<g><path style="opacity:1" fill="#68b6b5" d="M 13.5,45.5 C 14.8333,47.5 16.5,49.1667 18.5,50.5C 20.4485,52.6383 22.1152,54.9716 23.5,57.5C 22.0695,57.5792 20.7362,57.2458 19.5,56.5C 18.2888,57.2739 18.2888,58.1072 19.5,59C 22.8039,60.0419 24.9705,58.8753 26,55.5C 26.6622,56.9839 27.4955,58.3172 28.5,59.5C 32.1667,60.8333 35.8333,60.8333 39.5,59.5C 40.8333,59.5 42.1667,59.5 43.5,59.5C 46.9619,60.4816 50.6286,60.815 54.5,60.5C 39.3389,61.6612 24.0055,61.8279 8.5,61C 8,60.5 7.5,60 7,59.5C 6.50085,54.8452 6.33418,50.1785 6.5,45.5C 8.83333,45.5 11.1667,45.5 13.5,45.5 Z"/></g>
<g><path style="opacity:1" fill="#6fc8c8" d="M 13.5,45.5 C 27.8333,45.5 42.1667,45.5 56.5,45.5C 56.6658,50.1785 56.4992,54.8452 56,59.5C 55.6174,60.056 55.1174,60.3893 54.5,60.5C 50.6286,60.815 46.9619,60.4816 43.5,59.5C 44.8333,59.1667 44.8333,58.8333 43.5,58.5C 42.791,57.596 41.791,57.2627 40.5,57.5C 40.8128,53.9581 40.4794,50.6248 39.5,47.5C 38.1667,51.5 38.1667,55.5 39.5,59.5C 35.8333,60.8333 32.1667,60.8333 28.5,59.5C 31.1457,59.1084 33.6457,59.1084 36,59.5C 36.6667,56.1667 36.6667,52.8333 36,49.5C 29.9864,45.7911 26.3198,47.4577 25,54.5C 23.8455,53.2567 22.5122,52.2567 21,51.5C 20.5172,50.552 20.3505,49.552 20.5,48.5C 21.8734,48.6567 23.2068,48.49 24.5,48C 22.8333,47.3333 21.1667,47.3333 19.5,48C 18.7476,48.6708 18.4142,49.5041 18.5,50.5C 16.5,49.1667 14.8333,47.5 13.5,45.5 Z"/></g>
<g><path style="opacity:1" fill="#0c1313" d="M 39.5,47.5 C 39.5,51.1667 39.5,54.8333 39.5,58.5C 40.8333,58.5 42.1667,58.5 43.5,58.5C 44.8333,58.8333 44.8333,59.1667 43.5,59.5C 42.1667,59.5 40.8333,59.5 39.5,59.5C 38.1667,55.5 38.1667,51.5 39.5,47.5 Z"/></g>
<g><path style="opacity:1" fill="#366161" d="M 39.5,47.5 C 40.4794,50.6248 40.8128,53.9581 40.5,57.5C 41.791,57.2627 42.791,57.596 43.5,58.5C 42.1667,58.5 40.8333,58.5 39.5,58.5C 39.5,54.8333 39.5,51.1667 39.5,47.5 Z"/></g>
<g><path style="opacity:1" fill="#172626" d="M 28.5,59.5 C 27.4955,58.3172 26.6622,56.9839 26,55.5C 24.9705,58.8753 22.8039,60.0419 19.5,59C 18.2888,58.1072 18.2888,57.2739 19.5,56.5C 20.7362,57.2458 22.0695,57.5792 23.5,57.5C 22.1152,54.9716 20.4485,52.6383 18.5,50.5C 18.4142,49.5041 18.7476,48.6708 19.5,48C 21.1667,47.3333 22.8333,47.3333 24.5,48C 23.2068,48.49 21.8734,48.6567 20.5,48.5C 20.3505,49.552 20.5172,50.552 21,51.5C 22.5122,52.2567 23.8455,53.2567 25,54.5C 26.3198,47.4577 29.9864,45.7911 36,49.5C 36.6667,52.8333 36.6667,56.1667 36,59.5C 33.6457,59.1084 31.1457,59.1084 28.5,59.5 Z"/></g>
<g><path style="opacity:1" fill="#6ec6c6" d="M 29.5,48.5 C 34.7086,48.3693 36.3753,50.7026 34.5,55.5C 32.4706,54.3707 32.1373,54.8707 33.5,57C 27.9202,58.261 26.0868,56.0943 28,50.5C 28.7172,49.9558 29.2172,49.2891 29.5,48.5 Z"/></g>
</svg>
